<svg width="64" height="64" viewBox="0 0 64 64" fill="none" xmlns="http://www.w3.org/2000/svg">
<rect width="64" height="64" rx="20" fill="#E8F2FF"/>
<rect width="64" height="64" rx="20" fill="#F8F9FD"/>
<path d="M41.5335 28.9071C41.5335 23.6571 37.2499 19.3735 31.9999 19.3735C26.7499 19.3735 22.4663 23.6571 22.4663 28.9071C22.4663 29.6635 22.55 30.4198 22.76 31.1744C23.0126 32.3918 23.4736 33.1481 24.1036 34.1981C24.23 34.4508 24.3973 34.7018 24.5663 34.9954C24.7763 35.3318 24.9437 35.6681 25.1536 35.9618C25.9936 37.3481 26.4973 38.1454 26.4973 39.7844V43.7318C26.4973 44.7391 27.211 45.5381 28.1773 45.7054C28.5973 47.8481 29.8573 49.1918 32 49.1918C34.1427 49.1918 35.4436 47.8481 35.8227 45.7054C36.789 45.5381 37.5027 44.6981 37.5027 43.7318V39.7844C37.5027 38.1471 38.0063 37.3071 38.8463 35.9618C39.0137 35.6681 39.2237 35.3318 39.4336 34.9954C39.601 34.7018 39.77 34.4491 39.8963 34.1981C40.5263 33.1481 40.989 32.3918 41.24 31.1744C41.45 30.4197 41.5337 29.6634 41.5337 28.9071H41.5335ZM35.8635 40.7935H28.2199V39.8272C28.2199 39.6172 28.2199 39.4499 28.1772 39.2809H35.8637C35.8637 39.4482 35.821 39.6172 35.821 39.8272L35.8226 40.7935H35.8635ZM35.4861 44.1125H28.5133C28.3033 44.1125 28.177 43.9452 28.177 43.7762V42.4735H35.8205V43.7762C35.8632 43.9435 35.6958 44.1125 35.4858 44.1125H35.4861ZM31.9998 47.5562C31.5371 47.5562 30.3625 47.5562 29.8998 45.7925H34.1426C33.68 47.5562 32.4626 47.5562 32 47.5562H31.9998ZM39.6026 30.8397C39.3926 31.7634 39.0563 32.3934 38.469 33.3597C38.3016 33.6124 38.1753 33.8634 38.0063 34.1571C37.7963 34.4934 37.6289 34.8297 37.46 35.0807C36.9563 35.9207 36.4936 36.6771 36.2 37.5581H27.8835C27.5899 36.6754 27.1699 35.9207 26.6235 35.0807C26.4562 34.7871 26.2462 34.4934 26.0772 34.1571C25.9099 33.8634 25.7409 33.5697 25.6145 33.3597C25.0272 32.3524 24.6909 31.7634 24.4809 30.7971C24.3135 30.1671 24.2282 29.5371 24.2282 28.9071C24.2282 24.5807 27.7555 21.0535 32.0818 21.0535C36.4082 21.0535 39.9354 24.5808 39.9354 28.9071C39.8533 29.5371 39.7697 30.1671 39.6023 30.8397H39.6026Z" fill="#4F46BA"/>
<path d="M49.3036 28.0671H45.8173C45.3546 28.0671 44.9773 28.4445 44.9773 28.9071C44.9773 29.3698 45.3546 29.7471 45.8173 29.7471H49.3036C49.7663 29.7471 50.1436 29.3698 50.1436 28.9071C50.1436 28.4461 49.7663 28.0671 49.3036 28.0671Z" fill="#4F46BA"/>
<path d="M41.7436 20.0035C41.9536 20.0035 42.1636 19.9199 42.3309 19.7509L44.8082 17.2736C45.1446 16.9372 45.1446 16.4336 44.8082 16.0972C44.4719 15.7609 43.9683 15.7609 43.6319 16.0972L41.1546 18.5745C40.8183 18.9109 40.8183 19.4145 41.1546 19.7509C41.3236 19.9199 41.5336 20.0035 41.7436 20.0035H41.7436Z" fill="#4F46BA"/>
<path d="M31.9999 15.93C32.4626 15.93 32.8399 15.5527 32.8399 15.09V11.6037C32.8399 11.141 32.4626 10.7637 31.9999 10.7637C31.5373 10.7637 31.1599 11.141 31.1599 11.6037V15.09C31.1599 15.5527 31.5373 15.93 31.9999 15.93Z" fill="#4F46BA"/>
<path d="M21.667 19.7528C21.8344 19.9202 22.0444 20.0055 22.2544 20.0055C22.4644 20.0055 22.6744 19.9218 22.8417 19.7528C23.178 19.4165 23.178 18.9128 22.8417 18.5765L20.3644 16.0992C20.028 15.7628 19.5244 15.7628 19.188 16.0992C18.8517 16.4355 18.8517 16.9392 19.188 17.2755L21.667 19.7528Z" fill="#4F46BA"/>
<path d="M18.2236 28.0671H14.7372C14.2745 28.0671 13.8972 28.4445 13.8972 28.9071C13.8972 29.3698 14.2746 29.7471 14.7372 29.7471H18.2236C18.6862 29.7471 19.0636 29.3698 19.0636 28.9071C19.0636 28.4461 18.6862 28.0671 18.2236 28.0671Z" fill="#4F46BA"/>
<path d="M21.6671 38.0635L19.1897 40.5409C18.8534 40.8772 18.8534 41.3809 19.1897 41.7172C19.3571 41.8845 19.5671 41.9698 19.7771 41.9698C19.9871 41.9698 20.1971 41.8862 20.3644 41.7172L22.8417 39.2399C23.1781 38.9035 23.1781 38.3999 22.8417 38.0635C22.507 37.7272 21.9623 37.7272 21.667 38.0635H21.6671Z" fill="#4F46BA"/>
<path d="M42.3329 38.0635C41.9966 37.7272 41.4929 37.7272 41.1565 38.0635C40.8202 38.3999 40.8202 38.9035 41.1565 39.2399L43.6339 41.7172C43.8012 41.8845 44.0112 41.9698 44.2212 41.9698C44.4312 41.9698 44.6412 41.8862 44.8085 41.7172C45.1449 41.3809 45.1449 40.8772 44.8085 40.5409L42.3329 38.0635Z" fill="#4F46BA"/>
</svg>
