<svg width="64" height="64" viewBox="0 0 64 64" fill="none" xmlns="http://www.w3.org/2000/svg">
<rect width="64" height="64" rx="20" fill="#E8F2FF"/>
<rect width="64" height="64" rx="20" fill="#F8F9FD"/>
<path d="M47.3189 22.1032L41.8969 16.6812C41.786 16.5687 41.6375 16.5078 41.4797 16.5078C41.3234 16.5078 41.1734 16.5687 41.0625 16.6812L32.4109 25.3312L33.2468 26.1656L41.4796 17.9328L46.0656 22.5204L44.6313 23.9548L42.0328 21.3548C41.8016 21.1251 41.4297 21.1251 41.1985 21.3548C40.9672 21.5876 40.9672 21.9594 41.1985 22.1891L43.7969 24.7891L42.1531 26.4329L40.5125 24.7922C40.2812 24.5594 39.9094 24.5594 39.6781 24.7922C39.4469 25.0219 39.4469 25.3954 39.6781 25.6266L41.3188 27.2672L39.675 28.911L37.075 26.311C36.8438 26.0798 36.4719 26.0798 36.2406 26.311C36.0094 26.5423 36.0094 26.9141 36.2406 27.1454L38.8407 29.7454L37.8375 30.7485L38.6719 31.5829L47.3235 22.9328C47.5485 22.7078 47.5485 22.3344 47.3188 22.1032L47.3189 22.1032Z" fill="#4F46BA"/>
<path d="M29.7517 38.8344L27.1532 36.236C26.922 36.0047 26.5501 36.0047 26.3189 36.236C26.0876 36.4672 26.0876 36.8391 26.3189 37.0703L28.9173 39.6688L27.2735 41.3141L25.6329 39.6734C25.4017 39.4422 25.0282 39.4422 24.797 39.6734C24.5657 39.9047 24.5657 40.2766 24.797 40.5078L26.4376 42.1484L24.7939 43.7906L22.1954 41.1938C21.9642 40.9609 21.5907 40.9609 21.3595 41.1938C21.1283 41.4234 21.1283 41.7969 21.3595 42.0281L23.9579 44.6266L22.5236 46.0625L17.9376 41.4733L26.1688 33.2421L25.3344 32.4077L16.6844 41.0561C16.4532 41.2874 16.4532 41.6592 16.6844 41.8905L22.1064 47.3141C22.2174 47.4235 22.3658 47.4875 22.5236 47.4875C22.6799 47.4875 22.8299 47.4234 22.9408 47.3141L31.5908 38.6641L30.7549 37.8297L29.7517 38.8344Z" fill="#4F46BA"/>
<path d="M44.6753 39.2657L25.1161 19.7065L23.8098 18.3971C22.8848 17.469 21.302 17.4128 20.4458 18.2721L18.2723 20.4471C17.3817 21.3378 17.4395 22.8471 18.3989 23.808L39.2661 44.6769C39.538 44.9456 39.9911 45.3925 44.9709 46.5206C45.074 46.5425 45.1771 46.555 45.2803 46.555C45.6271 46.555 45.9506 46.4237 46.1896 46.1831C46.4959 45.8737 46.6193 45.4222 46.5209 44.9738C45.3928 39.9846 44.9428 39.5345 44.6756 39.2657L44.6753 39.2657ZM19.2345 22.9721C18.7329 22.4721 18.6751 21.7127 19.1064 21.2799L21.2782 19.108C21.4642 18.9205 21.7251 18.8174 22.0095 18.8174C22.3564 18.8174 22.7079 18.9689 22.972 19.233L23.8626 20.1237L20.1235 23.8627L19.2345 22.9721ZM39.1157 41.3253C38.9094 41.2612 38.6844 41.3159 38.5313 41.4659C38.3782 41.6175 38.3173 41.8393 38.3751 42.0472L38.4016 42.1425L20.9596 24.6973L24.7003 20.9582L42.0299 38.291C41.8268 38.2379 41.6127 38.291 41.4642 38.4363C41.3111 38.5879 41.2517 38.8097 41.3096 39.0144L41.6174 40.1238L40.583 39.8082C40.3768 39.7441 40.1518 39.8003 39.9986 39.9519C39.844 40.1003 39.7846 40.3253 39.8424 40.5331L40.1502 41.6394L39.1157 41.3253ZM40.1 43.8409L39.8032 42.769L40.8313 43.0847C41.0407 43.1456 41.2719 43.0878 41.4251 42.9331C41.5751 42.7815 41.6344 42.5612 41.5751 42.3565L41.2688 41.2534L42.3 41.5675C42.5047 41.6316 42.7297 41.5753 42.8844 41.4237C43.0375 41.2753 43.0985 41.0519 43.0407 40.8456L42.7297 39.7253L43.7641 40.0284L43.8422 40.105C43.9266 40.1894 44.0766 40.4519 44.3078 41.1519L41.1547 44.3081C40.4485 44.0722 40.1875 43.9253 40.1 43.8409L40.1 43.8409ZM45.3516 45.3534C45.3376 45.3659 45.3126 45.3753 45.2829 45.3753L45.236 45.3675C44.0548 45.1018 43.1485 44.8753 42.4407 44.6847L44.6876 42.4378C44.8782 43.144 45.1032 44.0503 45.3719 45.23C45.3797 45.2831 45.3719 45.3316 45.3516 45.3534L45.3516 45.3534Z" fill="#4F46BA"/>
</svg>
