<svg width="64" height="64" viewBox="0 0 64 64" fill="none" xmlns="http://www.w3.org/2000/svg">
<rect width="64" height="64" rx="20" fill="#E8F2FF"/>
<rect width="64" height="64" rx="20" fill="#F8F9FD"/>
<path d="M46.6312 35.1279H44.5796V18.7279C44.5734 17.6623 43.7093 16.8014 42.6437 16.7998H21.3561C20.2858 16.8014 19.4202 17.6701 19.4202 18.7404V35.1404H17.3686C16.9264 35.1404 16.5686 35.4983 16.5686 35.9404V45.2592C16.5686 46.3296 17.4342 47.1983 18.5045 47.1999H45.4953C46.5656 47.1983 47.4312 46.3296 47.4312 45.2592V35.928C47.4312 35.7155 47.3484 35.5124 47.1984 35.3624C47.0484 35.2124 46.8437 35.128 46.6312 35.128L46.6312 35.1279ZM21.0312 18.7279C21.0312 18.542 21.1812 18.3904 21.3687 18.3873H42.6439C42.8298 18.3904 42.9798 18.542 42.9798 18.7279V35.1279H40.5798C40.1845 35.1232 39.8439 35.4092 39.7798 35.7998L39.3439 38.492H24.6643L24.2284 35.7998C24.1643 35.4092 23.8252 35.1232 23.4284 35.1279H21.0284L21.0312 18.7279ZM45.8312 45.2483C45.8312 45.4343 45.6827 45.5858 45.4952 45.5874H18.5044C18.3169 45.5858 18.1685 45.4343 18.1685 45.2483V36.7279H22.7561L23.1999 39.4201C23.2639 39.8107 23.603 40.0967 23.9999 40.092H40.0407C40.436 40.0967 40.7766 39.8108 40.8407 39.4201L41.2766 36.7279H45.8314L45.8312 45.2483Z" fill="#4F46BA"/>
<path d="M34.0564 41.8591H29.944C29.5018 41.8591 29.144 42.2185 29.144 42.6591C29.144 43.1013 29.5019 43.4591 29.944 43.4591H34.0564C34.4986 43.4591 34.8564 43.1013 34.8564 42.6591C34.8564 42.2185 34.4986 41.8591 34.0564 41.8591Z" fill="#4F46BA"/>
<path d="M29.1564 27.0919L31.2002 24.6591V34.4311C31.2002 34.8733 31.558 35.2311 32.0002 35.2311C32.4424 35.2311 32.8002 34.8733 32.8002 34.4311V24.6591L34.8439 27.0904V27.0919C34.9971 27.2716 35.2205 27.3763 35.4564 27.3763C35.6424 27.3779 35.8236 27.3154 35.9689 27.1997C36.3048 26.9169 36.3501 26.4138 36.0689 26.0763L32.6127 21.9483C32.4548 21.7764 32.233 21.678 32.0002 21.678C31.7674 21.678 31.5455 21.7764 31.3877 21.9483L27.9315 26.0639C27.6721 26.403 27.7252 26.8873 28.0518 27.1639C28.3799 27.4389 28.8674 27.4076 29.1564 27.092L29.1564 27.0919Z" fill="#4F46BA"/>
</svg>
